{"title":"Switch 2013 BRRip 480p x264 AAC - VYTO [P2PDL]","uid":8832026,"size":409789085,"categoryP":"video","categoryS":"movies","magnet":"?xt=urn:btih:0f880f079000371858b17c4d91d83feaf13bba0b&amp;dn=Switch+2013+BRRip+480p+x264+AAC+-+VYTO+%5BP2PDL%5D&amp;tr=udp%3A%2F%2Ftracker.openbittorrent.com%3A80&amp;tr=udp%3A%2F%2Fopen.demonii.com%3A1337&amp;tr=udp%3A%2F%2Ftracker.coppersurfer.tk%3A6969&amp;tr=udp%3A%2F%2Fexodus.desync.com%3A6969","seeders":0,"leechers":2,"uploader":"ValidusVyto","files":-1,"time":1377010121,"description":"_______ Visit us at our Semi Public Bittorrent Community ________\n  &lt;a href=&quot;\nhttp://p2pdl.com&quot; rel=&quot;nofollow&quot; target=&quot;_NEW&quot;&gt;\nhttp://p2pdl.com&lt;/a&gt;  _____________________________ &lt;a href=&quot; http://p2pdl.com&quot; rel=&quot;nofollow&quot; target=&quot;_NEW&quot;&gt; http://p2pdl.com&lt;/a&gt;\n\n                         \nSwitch 2013 BRRip 480p x264 AAC - VYTO\n\n\nGenre: Action \nPlot: In search of an ancient Chinese scroll, a Chinese agent battles against Japanese\nYakuzas and British mercenaries.  \nDirector: Jay Sun\nStars: Andy Lau, Chiling Lin, Jingchu Zhang.\nRated: N/a\n\n\nIMDb: &lt;a href=&quot;\nhttp://www.imdb.com/title/tt2460488/&quot; rel=&quot;nofollow&quot; target=&quot;_NEW&quot;&gt;\nhttp://www.imdb.com/title/tt2460488/&lt;/a&gt;\n\n\nFormat                         : MPEG-4\nFile size                      : 387 MiB\nDuration                       : 2h 2mn\nOverall bit rate mode          : Variable\nOverall bit rate               : 442 Kbps\nVideo\nFormat                         : AVC\nBit rate                       : 399 Kbps\nWidth                          : 720 pixels\nHeight                         : 304 pixels\nDisplay aspect ratio           : 2.35:1\nFrame rate mode                : Constant\nFrame rate                     : 24.000 fps\nBit depth                      : 10 bits\nStream size                    : 349 MiB (90%)\nWriting library                : x264 core 133 r2334\n\nAudio\nFormat                         : AAC\nBit rate mode                  : Variable\nBit rate                       : 40.0 Kbps\nChannel(s)                     : 2 channels\nChannel positions              : Front: L R\nSampling rate                  : 48.0 KHz\nStream size                    : 35.0 MiB (9%)\nLanguage                       : Chinese(Cantonese)\n\nSubtitle\t\t       : Yes(English)\n\nSource                         : 720p.BluRay.X264-HDWinG\n &lt;a href=&quot;\nhttp://ultraimg.com/images/WUIt0.png&quot; rel=&quot;nofollow&quot; target=&quot;_NEW&quot;&gt;\nhttp://ultraimg.com/images/WUIt0.png&lt;/a&gt; &lt;a href=&quot;\nhttp://ultraimg.com/images/r00QC.png&quot; rel=&quot;nofollow&quot; target=&quot;_NEW&quot;&gt;\nhttp://ultraimg.com/images/r00QC.png&lt;/a&gt; &lt;a href=&quot;\nhttp://ultraimg.com/images/I7FE.png&quot; rel=&quot;nofollow&quot; target=&quot;_NEW&quot;&gt;\nhttp://ultraimg.com/images/I7FE.png&lt;/a&gt; &lt;a href=&quot;\nhttp://ultraimg.com/images/H627k.png&quot; rel=&quot;nofollow&quot; target=&quot;_NEW&quot;&gt;\nhttp://ultraimg.com/images/H627k.png&lt;/a&gt; &lt;a href=&quot;\nhttp://ultraimg.com/images/jZAco.png&quot; rel=&quot;nofollow&quot; target=&quot;_NEW&quot;&gt;\nhttp://ultraimg.com/images/jZAco.png&lt;/a&gt; &lt;a href=&quot;\nhttp://ultraimg.com/images/Gacip.png&quot; rel=&quot;nofollow&quot; target=&quot;_NEW&quot;&gt;\nhttp://ultraimg.com/images/Gacip.png&lt;/a&gt; &lt;a href=&quot;\nhttp://ultraimg.com/images/Ljluw.png&quot; rel=&quot;nofollow&quot; target=&quot;_NEW&quot;&gt;\nhttp://ultraimg.com/images/Ljluw.png&lt;/a&gt;\n\n----------------------------------------------------------------------------------------------------\n\n\nEncoded using revolutionary 10bit encoding, which enables us to provide you more crispier \nand sharper images at small sizes, just make sure you follow our instructions without a fault.\nRecommend to you to use latest version of VLC player. Install K-Lite Codec Pack or shark007 codecs\nin case of any kind of problem in playback (For non-VLC Media Player users). Alternatively, install\nCore AVC codecs, the fastest decoder that there is coupled with Community Center Codec Pack and play\non Windows Media Player Classic. Check sample to be sure.\nEnjoy!\n\nEncoder Notes:Looking For Early Access To Anything You Can Provide DVDScr, R5, DVDR, BluRay, Direct\nAudio, Music Releases and Seedboxes. We require dedicated servers, so as to do more \nand fast releases of movies.\nIf You Got anything to offer please contact us at &quot;&lt;a class=&quot;__cf_email__&quot; href=&quot;/cdn-cgi/l/email-protection&quot; data-cfemail=&quot;abdbd9ccebc3ded8c385c8c4c6&quot;&gt;[email&amp;#160;protected]&lt;/a&gt;&lt;script cf-hash='f9e31' type=&quot;text/javascript&quot;&gt;\n/* &lt;![CDATA[ */!function(){try{var t=&quot;currentScript&quot;in document?document.currentScript:function(){for(var t=document.getElementsByTagName(&quot;script&quot;),e=t.length;e--;)if(t[e].getAttribute(&quot;cf-hash&quot;))return t[e]}();if(t&amp;&amp;t.previousSibling){var e,r,n,i,c=t.previousSibling,a=c.getAttribute(&quot;data-cfemail&quot;);if(a){for(e=&quot;&quot;,r=parseInt(a.substr(0,2),16),n=2;a.length-n;n+=2)i=parseInt(a.substr(n,2),16)^r,e+=String.fromCharCode(i);e=document.createTextNode(e),c.parentNode.replaceChild(e,c)}}}catch(u){}}();/* ]]&gt; */&lt;/script&gt;&quot;.\n\nFace book Fan Page:  \nSearch P2PDL on FB and hit like!!!\n\nFor more of our team uploads visit @          &lt;a href=&quot;\nhttp://thepiratebay.se/user/vitamin_x&quot; rel=&quot;nofollow&quot; target=&quot;_NEW&quot;&gt;\nhttp://thepiratebay.se/user/vitamin_x&lt;/a&gt;\t\n","torrent":{"xt":"urn:btih:0f880f079000371858b17c4d91d83feaf13bba0b","amp;dn":"Switch+2013+BRRip+480p+x264+AAC+-+VYTO+%5BP2PDL%5D","amp;tr":["udp%3A%2F%2Ftracker.openbittorrent.com%3A80","udp%3A%2F%2Fopen.demonii.com%3A1337","udp%3A%2F%2Ftracker.coppersurfer.tk%3A6969","udp%3A%2F%2Fexodus.desync.com%3A6969"],"infoHash":"0f880f079000371858b17c4d91d83feaf13bba0b","infoHashBuffer":{"type":"Buffer","data":[15,136,15,7,144,0,55,24,88,177,124,77,145,216,63,234,241,59,186,11]},"announce":[],"urlList":[]}}